<mxfile host="app.diagrams.net" modified="2020-06-23T13:52:22.443Z" agent="5.0 (Windows)" etag="4o4_jG4UDeun-mKYrnN8" version="13.3.1" type="github">
  <diagram id="iMrueTf8OzH_u1Gm9q5F" name="Page-1">
    <mxGraphModel dx="1078" dy="1609" grid="1" gridSize="10" guides="1" tooltips="1" connect="1" arrows="1" fold="1" page="1" pageScale="1" pageWidth="850" pageHeight="1100" math="0" shadow="0">
      <root>
        <mxCell id="0" />
        <mxCell id="1" parent="0" />
        <mxCell id="tOMq7tBUMF9Jnf4JLUL3-1" value="User" style="swimlane;fontStyle=0;childLayout=stackLayout;horizontal=1;startSize=26;fillColor=none;horizontalStack=0;resizeParent=1;resizeParentMax=0;resizeLast=0;collapsible=1;marginBottom=0;" parent="1" vertex="1">
          <mxGeometry x="360" y="226.99998982747394" width="140" height="130" as="geometry">
            <mxRectangle x="470" y="194" width="60" height="26" as="alternateBounds" />
          </mxGeometry>
        </mxCell>
        <mxCell id="tOMq7tBUMF9Jnf4JLUL3-2" value="- firstName : String&#xa;&#xa;" style="text;strokeColor=none;fillColor=none;align=left;verticalAlign=top;spacingLeft=4;spacingRight=4;overflow=hidden;rotatable=0;points=[[0,0.5],[1,0.5]];portConstraint=eastwest;" parent="tOMq7tBUMF9Jnf4JLUL3-1" vertex="1">
          <mxGeometry y="26" width="140" height="26" as="geometry" />
        </mxCell>
        <mxCell id="tOMq7tBUMF9Jnf4JLUL3-3" value="- lastName : String" style="text;strokeColor=none;fillColor=none;align=left;verticalAlign=top;spacingLeft=4;spacingRight=4;overflow=hidden;rotatable=0;points=[[0,0.5],[1,0.5]];portConstraint=eastwest;" parent="tOMq7tBUMF9Jnf4JLUL3-1" vertex="1">
          <mxGeometry y="52" width="140" height="26" as="geometry" />
        </mxCell>
        <mxCell id="tOMq7tBUMF9Jnf4JLUL3-4" value="- password : String" style="text;strokeColor=none;fillColor=none;align=left;verticalAlign=top;spacingLeft=4;spacingRight=4;overflow=hidden;rotatable=0;points=[[0,0.5],[1,0.5]];portConstraint=eastwest;" parent="tOMq7tBUMF9Jnf4JLUL3-1" vertex="1">
          <mxGeometry y="78" width="140" height="26" as="geometry" />
        </mxCell>
        <mxCell id="tOMq7tBUMF9Jnf4JLUL3-5" value="- email : String&#xa;" style="text;strokeColor=none;fillColor=none;align=left;verticalAlign=top;spacingLeft=4;spacingRight=4;overflow=hidden;rotatable=0;points=[[0,0.5],[1,0.5]];portConstraint=eastwest;" parent="tOMq7tBUMF9Jnf4JLUL3-1" vertex="1">
          <mxGeometry y="104" width="140" height="26" as="geometry" />
        </mxCell>
        <mxCell id="tOMq7tBUMF9Jnf4JLUL3-6" value="Map" style="swimlane;fontStyle=0;childLayout=stackLayout;horizontal=1;startSize=26;fillColor=none;horizontalStack=0;resizeParent=1;resizeParentMax=0;resizeLast=0;collapsible=1;marginBottom=0;" parent="1" vertex="1">
          <mxGeometry x="830" y="250" width="140" height="78" as="geometry" />
        </mxCell>
        <mxCell id="tOMq7tBUMF9Jnf4JLUL3-7" value="- ID : String" style="text;strokeColor=none;fillColor=none;align=left;verticalAlign=top;spacingLeft=4;spacingRight=4;overflow=hidden;rotatable=0;points=[[0,0.5],[1,0.5]];portConstraint=eastwest;" parent="tOMq7tBUMF9Jnf4JLUL3-6" vertex="1">
          <mxGeometry y="26" width="140" height="26" as="geometry" />
        </mxCell>
        <mxCell id="tOMq7tBUMF9Jnf4JLUL3-8" value="- mapName: String&#xa;" style="text;strokeColor=none;fillColor=none;align=left;verticalAlign=top;spacingLeft=4;spacingRight=4;overflow=hidden;rotatable=0;points=[[0,0.5],[1,0.5]];portConstraint=eastwest;" parent="tOMq7tBUMF9Jnf4JLUL3-6" vertex="1">
          <mxGeometry y="52" width="140" height="26" as="geometry" />
        </mxCell>
        <mxCell id="tOMq7tBUMF9Jnf4JLUL3-9" value="MapPermission" style="swimlane;fontStyle=0;childLayout=stackLayout;horizontal=1;startSize=26;fillColor=none;horizontalStack=0;resizeParent=1;resizeParentMax=0;resizeLast=0;collapsible=1;marginBottom=0;" parent="1" vertex="1">
          <mxGeometry x="534" y="393" width="140" height="56" as="geometry" />
        </mxCell>
        <mxCell id="tOMq7tBUMF9Jnf4JLUL3-10" value="+ permission: Enum" style="text;html=1;" parent="tOMq7tBUMF9Jnf4JLUL3-9" vertex="1">
          <mxGeometry y="26" width="140" height="30" as="geometry" />
        </mxCell>
        <mxCell id="tOMq7tBUMF9Jnf4JLUL3-11" value="Group" style="swimlane;fontStyle=0;childLayout=stackLayout;horizontal=1;startSize=26;fillColor=none;horizontalStack=0;resizeParent=1;resizeParentMax=0;resizeLast=0;collapsible=1;marginBottom=0;" parent="1" vertex="1">
          <mxGeometry x="340" y="602.5" width="140" height="104" as="geometry" />
        </mxCell>
        <mxCell id="tOMq7tBUMF9Jnf4JLUL3-12" value="- id: String" style="text;strokeColor=none;fillColor=none;align=left;verticalAlign=top;spacingLeft=4;spacingRight=4;overflow=hidden;rotatable=0;points=[[0,0.5],[1,0.5]];portConstraint=eastwest;" parent="tOMq7tBUMF9Jnf4JLUL3-11" vertex="1">
          <mxGeometry y="26" width="140" height="26" as="geometry" />
        </mxCell>
        <mxCell id="tOMq7tBUMF9Jnf4JLUL3-13" value="- name: String" style="text;strokeColor=none;fillColor=none;align=left;verticalAlign=top;spacingLeft=4;spacingRight=4;overflow=hidden;rotatable=0;points=[[0,0.5],[1,0.5]];portConstraint=eastwest;" parent="tOMq7tBUMF9Jnf4JLUL3-11" vertex="1">
          <mxGeometry y="52" width="140" height="26" as="geometry" />
        </mxCell>
        <mxCell id="tOMq7tBUMF9Jnf4JLUL3-14" value="- description: String" style="text;strokeColor=none;fillColor=none;align=left;verticalAlign=top;spacingLeft=4;spacingRight=4;overflow=hidden;rotatable=0;points=[[0,0.5],[1,0.5]];portConstraint=eastwest;" parent="tOMq7tBUMF9Jnf4JLUL3-11" vertex="1">
          <mxGeometry y="78" width="140" height="26" as="geometry" />
        </mxCell>
        <mxCell id="tOMq7tBUMF9Jnf4JLUL3-15" value="Folder" style="swimlane;fontStyle=0;childLayout=stackLayout;horizontal=1;startSize=26;fillColor=none;horizontalStack=0;resizeParent=1;resizeParentMax=0;resizeLast=0;collapsible=1;marginBottom=0;" parent="1" vertex="1">
          <mxGeometry x="527" y="40" width="140" height="102" as="geometry" />
        </mxCell>
        <mxCell id="tOMq7tBUMF9Jnf4JLUL3-16" value="- ID: String&#xa;" style="text;strokeColor=none;fillColor=none;align=left;verticalAlign=top;spacingLeft=4;spacingRight=4;overflow=hidden;rotatable=0;points=[[0,0.5],[1,0.5]];portConstraint=eastwest;" parent="tOMq7tBUMF9Jnf4JLUL3-15" vertex="1">
          <mxGeometry y="26" width="140" height="24" as="geometry" />
        </mxCell>
        <mxCell id="tOMq7tBUMF9Jnf4JLUL3-17" value="- folderName: String" style="text;strokeColor=none;fillColor=none;align=left;verticalAlign=top;spacingLeft=4;spacingRight=4;overflow=hidden;rotatable=0;points=[[0,0.5],[1,0.5]];portConstraint=eastwest;" parent="tOMq7tBUMF9Jnf4JLUL3-15" vertex="1">
          <mxGeometry y="50" width="140" height="26" as="geometry" />
        </mxCell>
        <mxCell id="tOMq7tBUMF9Jnf4JLUL3-18" value="- description: String" style="text;strokeColor=none;fillColor=none;align=left;verticalAlign=top;spacingLeft=4;spacingRight=4;overflow=hidden;rotatable=0;points=[[0,0.5],[1,0.5]];portConstraint=eastwest;" parent="tOMq7tBUMF9Jnf4JLUL3-15" vertex="1">
          <mxGeometry y="76" width="140" height="26" as="geometry" />
        </mxCell>
        <mxCell id="tOMq7tBUMF9Jnf4JLUL3-19" value="UserInGroup" style="swimlane;fontStyle=0;childLayout=stackLayout;horizontal=1;startSize=26;fillColor=none;horizontalStack=0;resizeParent=1;resizeParentMax=0;resizeLast=0;collapsible=1;marginBottom=0;" parent="1" vertex="1">
          <mxGeometry x="554" y="510" width="140" height="56" as="geometry" />
        </mxCell>
        <mxCell id="tOMq7tBUMF9Jnf4JLUL3-20" value="+ role: Enum" style="text;html=1;" parent="tOMq7tBUMF9Jnf4JLUL3-19" vertex="1">
          <mxGeometry y="26" width="140" height="30" as="geometry" />
        </mxCell>
        <mxCell id="tOMq7tBUMF9Jnf4JLUL3-23" value="" style="endArrow=none;html=1;exitX=0.998;exitY=0.33;exitDx=0;exitDy=0;exitPerimeter=0;" parent="1" source="tOMq7tBUMF9Jnf4JLUL3-4" target="tOMq7tBUMF9Jnf4JLUL3-8" edge="1">
          <mxGeometry x="0.1168" y="3" width="50" height="50" relative="1" as="geometry">
            <mxPoint x="500" y="291.9999898274739" as="sourcePoint" />
            <mxPoint x="550" y="230" as="targetPoint" />
            <mxPoint as="offset" />
          </mxGeometry>
        </mxCell>
        <mxCell id="tOMq7tBUMF9Jnf4JLUL3-24" value="Has a" style="endArrow=none;dashed=1;html=1;exitX=0.4;exitY=-0.058;exitDx=0;exitDy=0;exitPerimeter=0;" parent="1" source="tOMq7tBUMF9Jnf4JLUL3-9" edge="1">
          <mxGeometry width="50" height="50" relative="1" as="geometry">
            <mxPoint x="590" y="380" as="sourcePoint" />
            <mxPoint x="590" y="320" as="targetPoint" />
          </mxGeometry>
        </mxCell>
        <mxCell id="tOMq7tBUMF9Jnf4JLUL3-25" value="" style="endArrow=none;html=1;entryX=0.136;entryY=1;entryDx=0;entryDy=0;entryPerimeter=0;" parent="1" target="tOMq7tBUMF9Jnf4JLUL3-5" edge="1">
          <mxGeometry width="50" height="50" relative="1" as="geometry">
            <mxPoint x="379" y="603" as="sourcePoint" />
            <mxPoint x="350" y="480" as="targetPoint" />
          </mxGeometry>
        </mxCell>
        <mxCell id="tOMq7tBUMF9Jnf4JLUL3-26" value="Owner" style="text;html=1;align=center;verticalAlign=middle;resizable=0;points=[];;labelBackgroundColor=#ffffff;" parent="tOMq7tBUMF9Jnf4JLUL3-25" vertex="1" connectable="0">
          <mxGeometry x="0.1556" y="-4" relative="1" as="geometry">
            <mxPoint as="offset" />
          </mxGeometry>
        </mxCell>
        <mxCell id="tOMq7tBUMF9Jnf4JLUL3-27" value="" style="endArrow=none;html=1;entryX=0.645;entryY=1.001;entryDx=0;entryDy=0;entryPerimeter=0;exitX=0.785;exitY=-0.006;exitDx=0;exitDy=0;exitPerimeter=0;" parent="1" source="tOMq7tBUMF9Jnf4JLUL3-11" target="tOMq7tBUMF9Jnf4JLUL3-5" edge="1">
          <mxGeometry width="50" height="50" relative="1" as="geometry">
            <mxPoint x="450" y="600" as="sourcePoint" />
            <mxPoint x="450" y="440" as="targetPoint" />
          </mxGeometry>
        </mxCell>
        <mxCell id="tOMq7tBUMF9Jnf4JLUL3-28" value="participate" style="endArrow=none;dashed=1;html=1;exitX=0;exitY=0.25;exitDx=0;exitDy=0;" parent="1" source="tOMq7tBUMF9Jnf4JLUL3-19" edge="1">
          <mxGeometry x="-0.1538" y="-13" width="50" height="50" relative="1" as="geometry">
            <mxPoint x="340" y="820" as="sourcePoint" />
            <mxPoint x="450" y="523" as="targetPoint" />
            <mxPoint as="offset" />
          </mxGeometry>
        </mxCell>
        <mxCell id="tOMq7tBUMF9Jnf4JLUL3-29" value="" style="endArrow=none;html=1;entryX=-0.008;entryY=0.133;entryDx=0;entryDy=0;exitX=0.35;exitY=-0.005;exitDx=0;exitDy=0;exitPerimeter=0;entryPerimeter=0;" parent="1" source="tOMq7tBUMF9Jnf4JLUL3-1" target="tOMq7tBUMF9Jnf4JLUL3-15" edge="1">
          <mxGeometry width="50" height="50" relative="1" as="geometry">
            <mxPoint x="410" y="220" as="sourcePoint" />
            <mxPoint x="460" y="186" as="targetPoint" />
            <Array as="points">
              <mxPoint x="410" y="53" />
            </Array>
          </mxGeometry>
        </mxCell>
        <mxCell id="tOMq7tBUMF9Jnf4JLUL3-30" value="Owner" style="text;html=1;align=center;verticalAlign=middle;resizable=0;points=[];;labelBackgroundColor=#ffffff;" parent="tOMq7tBUMF9Jnf4JLUL3-29" vertex="1" connectable="0">
          <mxGeometry x="-0.2535" y="-2" relative="1" as="geometry">
            <mxPoint as="offset" />
          </mxGeometry>
        </mxCell>
        <mxCell id="tOMq7tBUMF9Jnf4JLUL3-31" value="1" style="text;html=1;align=center;verticalAlign=middle;resizable=0;points=[];;labelBackgroundColor=#ffffff;" parent="tOMq7tBUMF9Jnf4JLUL3-29" vertex="1" connectable="0">
          <mxGeometry x="-0.9542" y="1" relative="1" as="geometry">
            <mxPoint x="-8" y="-9.5" as="offset" />
          </mxGeometry>
        </mxCell>
        <mxCell id="tOMq7tBUMF9Jnf4JLUL3-32" value="*" style="text;html=1;align=center;verticalAlign=middle;resizable=0;points=[];;labelBackgroundColor=#ffffff;" parent="tOMq7tBUMF9Jnf4JLUL3-29" vertex="1" connectable="0">
          <mxGeometry x="0.9208" relative="1" as="geometry">
            <mxPoint x="5.5" y="-13.5" as="offset" />
          </mxGeometry>
        </mxCell>
        <mxCell id="tOMq7tBUMF9Jnf4JLUL3-33" value="" style="endArrow=none;html=1;entryX=1.017;entryY=0.201;entryDx=0;entryDy=0;exitX=0.5;exitY=0;exitDx=0;exitDy=0;entryPerimeter=0;" parent="1" source="tOMq7tBUMF9Jnf4JLUL3-15" target="tOMq7tBUMF9Jnf4JLUL3-15" edge="1">
          <mxGeometry width="50" height="50" relative="1" as="geometry">
            <mxPoint x="890" y="207" as="sourcePoint" />
            <mxPoint x="1007" y="40" as="targetPoint" />
            <Array as="points">
              <mxPoint x="597" y="20" />
              <mxPoint x="710" y="20" />
              <mxPoint x="710" y="61" />
            </Array>
          </mxGeometry>
        </mxCell>
        <mxCell id="tOMq7tBUMF9Jnf4JLUL3-34" value="Parent" style="text;html=1;align=center;verticalAlign=middle;resizable=0;points=[];;labelBackgroundColor=#ffffff;" parent="tOMq7tBUMF9Jnf4JLUL3-33" vertex="1" connectable="0">
          <mxGeometry x="-0.2535" y="-2" relative="1" as="geometry">
            <mxPoint x="-7" y="-12" as="offset" />
          </mxGeometry>
        </mxCell>
        <mxCell id="tOMq7tBUMF9Jnf4JLUL3-35" value="" style="endArrow=none;html=1;exitX=0.5;exitY=0;exitDx=0;exitDy=0;" parent="1" source="tOMq7tBUMF9Jnf4JLUL3-6" target="tOMq7tBUMF9Jnf4JLUL3-16" edge="1">
          <mxGeometry width="50" height="50" relative="1" as="geometry">
            <mxPoint x="620" y="150" as="sourcePoint" />
            <mxPoint x="670" y="100" as="targetPoint" />
            <Array as="points">
              <mxPoint x="900" y="79" />
            </Array>
          </mxGeometry>
        </mxCell>
        <mxCell id="tOMq7tBUMF9Jnf4JLUL3-36" value="Contains" style="text;html=1;align=center;verticalAlign=middle;resizable=0;points=[];;labelBackgroundColor=#ffffff;" parent="tOMq7tBUMF9Jnf4JLUL3-35" vertex="1" connectable="0">
          <mxGeometry x="-0.302" y="-3" relative="1" as="geometry">
            <mxPoint as="offset" />
          </mxGeometry>
        </mxCell>
        <mxCell id="tOMq7tBUMF9Jnf4JLUL3-39" value="" style="endArrow=none;html=1;exitX=1;exitY=0.5;exitDx=0;exitDy=0;" parent="1" edge="1">
          <mxGeometry x="0.1168" y="3" width="50" height="50" relative="1" as="geometry">
            <mxPoint x="500" y="265.4999898274739" as="sourcePoint" />
            <mxPoint x="830" y="265.4999982198078" as="targetPoint" />
            <mxPoint as="offset" />
          </mxGeometry>
        </mxCell>
        <mxCell id="tOMq7tBUMF9Jnf4JLUL3-40" value="Subscribed" style="text;html=1;align=center;verticalAlign=middle;resizable=0;points=[];;labelBackgroundColor=#ffffff;" parent="tOMq7tBUMF9Jnf4JLUL3-39" vertex="1" connectable="0">
          <mxGeometry x="0.0589" y="2" relative="1" as="geometry">
            <mxPoint as="offset" />
          </mxGeometry>
        </mxCell>
        <mxCell id="tOMq7tBUMF9Jnf4JLUL3-41" value="ModelElement" style="swimlane;fontStyle=0;childLayout=stackLayout;horizontal=1;startSize=26;fillColor=none;horizontalStack=0;resizeParent=1;resizeParentMax=0;resizeLast=0;collapsible=1;marginBottom=0;" parent="1" vertex="1">
          <mxGeometry x="1485" y="174.5" width="140" height="52" as="geometry" />
        </mxCell>
        <mxCell id="tOMq7tBUMF9Jnf4JLUL3-42" value="" style="endArrow=none;html=1;exitX=1;exitY=0.5;exitDx=0;exitDy=0;" parent="1" edge="1">
          <mxGeometry x="0.1168" y="3" width="50" height="50" relative="1" as="geometry">
            <mxPoint x="500" y="288.4999898274739" as="sourcePoint" />
            <mxPoint x="830" y="288.4999982198078" as="targetPoint" />
            <mxPoint as="offset" />
          </mxGeometry>
        </mxCell>
        <mxCell id="tOMq7tBUMF9Jnf4JLUL3-43" value="Owner" style="text;html=1;align=center;verticalAlign=middle;resizable=0;points=[];;labelBackgroundColor=#ffffff;" parent="tOMq7tBUMF9Jnf4JLUL3-42" vertex="1" connectable="0">
          <mxGeometry x="0.0589" y="2" relative="1" as="geometry">
            <mxPoint as="offset" />
          </mxGeometry>
        </mxCell>
        <mxCell id="tOMq7tBUMF9Jnf4JLUL3-46" value="1" style="text;html=1;align=center;verticalAlign=middle;resizable=0;points=[];;labelBackgroundColor=#ffffff;" parent="1" vertex="1" connectable="0">
          <mxGeometry x="597.0395726185984" y="39.987192481761326" as="geometry">
            <mxPoint x="-8" y="-9.5" as="offset" />
          </mxGeometry>
        </mxCell>
        <mxCell id="tOMq7tBUMF9Jnf4JLUL3-47" value="*" style="text;html=1;align=center;verticalAlign=middle;resizable=0;points=[];;labelBackgroundColor=#ffffff;rotation=50;direction=south;" parent="1" vertex="1" connectable="0">
          <mxGeometry x="659.8601667196012" y="50.00973295101221" as="geometry">
            <mxPoint x="24.5" y="-3.5" as="offset" />
          </mxGeometry>
        </mxCell>
        <mxCell id="tOMq7tBUMF9Jnf4JLUL3-48" value="*" style="text;html=1;align=center;verticalAlign=middle;resizable=0;points=[];;labelBackgroundColor=#ffffff;" parent="1" vertex="1" connectable="0">
          <mxGeometry x="899.8601667196012" y="250.0097329510122" as="geometry">
            <mxPoint x="5.5" y="-13.5" as="offset" />
          </mxGeometry>
        </mxCell>
        <mxCell id="tOMq7tBUMF9Jnf4JLUL3-49" value="*" style="text;html=1;align=center;verticalAlign=middle;resizable=0;points=[];;labelBackgroundColor=#ffffff;" parent="1" vertex="1" connectable="0">
          <mxGeometry x="673.8601667196012" y="100.00973295101221" as="geometry">
            <mxPoint x="5.5" y="-13.5" as="offset" />
          </mxGeometry>
        </mxCell>
        <mxCell id="tOMq7tBUMF9Jnf4JLUL3-50" value="*" style="text;html=1;align=center;verticalAlign=middle;resizable=0;points=[];;labelBackgroundColor=#ffffff;" parent="1" vertex="1" connectable="0">
          <mxGeometry x="809.8601667196012" y="270.0097329510122" as="geometry">
            <mxPoint x="5.5" y="-13.5" as="offset" />
          </mxGeometry>
        </mxCell>
        <mxCell id="tOMq7tBUMF9Jnf4JLUL3-51" value="*" style="text;html=1;align=center;verticalAlign=middle;resizable=0;points=[];;labelBackgroundColor=#ffffff;" parent="1" vertex="1" connectable="0">
          <mxGeometry x="509.86016671960124" y="270.0097329510122" as="geometry">
            <mxPoint x="5.5" y="-13.5" as="offset" />
          </mxGeometry>
        </mxCell>
        <mxCell id="tOMq7tBUMF9Jnf4JLUL3-52" value="*" style="text;html=1;align=center;verticalAlign=middle;resizable=0;points=[];;labelBackgroundColor=#ffffff;" parent="1" vertex="1" connectable="0">
          <mxGeometry x="809.8601667196012" y="292.0097329510122" as="geometry">
            <mxPoint x="5.5" y="-13.5" as="offset" />
          </mxGeometry>
        </mxCell>
        <mxCell id="tOMq7tBUMF9Jnf4JLUL3-53" value="*" style="text;html=1;align=center;verticalAlign=middle;resizable=0;points=[];;labelBackgroundColor=#ffffff;" parent="1" vertex="1" connectable="0">
          <mxGeometry x="523.0395726185984" y="287.9871924817613" as="geometry">
            <mxPoint x="-8" y="-9.5" as="offset" />
          </mxGeometry>
        </mxCell>
        <mxCell id="tOMq7tBUMF9Jnf4JLUL3-54" value="*" style="text;html=1;align=center;verticalAlign=middle;resizable=0;points=[];;labelBackgroundColor=#ffffff;" parent="1" vertex="1" connectable="0">
          <mxGeometry x="809.8601667196012" y="319.0097329510122" as="geometry">
            <mxPoint x="5.5" y="-13.5" as="offset" />
          </mxGeometry>
        </mxCell>
        <mxCell id="tOMq7tBUMF9Jnf4JLUL3-55" value="*" style="text;html=1;align=center;verticalAlign=middle;resizable=0;points=[];;labelBackgroundColor=#ffffff;" parent="1" vertex="1" connectable="0">
          <mxGeometry x="508.86016671960124" y="318.0097329510122" as="geometry">
            <mxPoint x="5.5" y="-13.5" as="offset" />
          </mxGeometry>
        </mxCell>
        <mxCell id="tOMq7tBUMF9Jnf4JLUL3-56" value="*" style="text;html=1;align=center;verticalAlign=middle;resizable=0;points=[];;labelBackgroundColor=#ffffff;" parent="1" vertex="1" connectable="0">
          <mxGeometry x="368.86016671960124" y="602.5097329510122" as="geometry">
            <mxPoint x="5.5" y="-13.5" as="offset" />
          </mxGeometry>
        </mxCell>
        <mxCell id="tOMq7tBUMF9Jnf4JLUL3-57" value="*" style="text;html=1;align=center;verticalAlign=middle;resizable=0;points=[];;labelBackgroundColor=#ffffff;" parent="1" vertex="1" connectable="0">
          <mxGeometry x="380.0395726185984" y="379.9871924817613" as="geometry">
            <mxPoint x="-8" y="-9.5" as="offset" />
          </mxGeometry>
        </mxCell>
        <mxCell id="tOMq7tBUMF9Jnf4JLUL3-58" value="*" style="text;html=1;align=center;verticalAlign=middle;resizable=0;points=[];;labelBackgroundColor=#ffffff;" parent="1" vertex="1" connectable="0">
          <mxGeometry x="439.86016671960124" y="602.5097329510122" as="geometry">
            <mxPoint x="5.5" y="-13.5" as="offset" />
          </mxGeometry>
        </mxCell>
        <mxCell id="tOMq7tBUMF9Jnf4JLUL3-59" value="*" style="text;html=1;align=center;verticalAlign=middle;resizable=0;points=[];;labelBackgroundColor=#ffffff;" parent="1" vertex="1" connectable="0">
          <mxGeometry x="439.86016671960124" y="386.0097329510122" as="geometry">
            <mxPoint x="5.5" y="-13.5" as="offset" />
          </mxGeometry>
        </mxCell>
        <mxCell id="tOMq7tBUMF9Jnf4JLUL3-60" value="Link" style="swimlane;fontStyle=0;childLayout=stackLayout;horizontal=1;startSize=26;fillColor=none;horizontalStack=0;resizeParent=1;resizeParentMax=0;resizeLast=0;collapsible=1;marginBottom=0;" parent="1" vertex="1">
          <mxGeometry x="1345" y="308.5" width="140" height="52" as="geometry" />
        </mxCell>
        <mxCell id="tOMq7tBUMF9Jnf4JLUL3-61" value="validity" style="text;strokeColor=none;fillColor=none;align=left;verticalAlign=top;spacingLeft=4;spacingRight=4;overflow=hidden;rotatable=0;points=[[0,0.5],[1,0.5]];portConstraint=eastwest;" parent="tOMq7tBUMF9Jnf4JLUL3-60" vertex="1">
          <mxGeometry y="26" width="140" height="26" as="geometry" />
        </mxCell>
        <mxCell id="tOMq7tBUMF9Jnf4JLUL3-62" value="NamedModelElement" style="swimlane;fontStyle=0;childLayout=stackLayout;horizontal=1;startSize=26;fillColor=none;horizontalStack=0;resizeParent=1;resizeParentMax=0;resizeLast=0;collapsible=1;marginBottom=0;" parent="1" vertex="1">
          <mxGeometry x="1565" y="308.5" width="140" height="52" as="geometry" />
        </mxCell>
        <mxCell id="tOMq7tBUMF9Jnf4JLUL3-63" value="name" style="text;strokeColor=none;fillColor=none;align=left;verticalAlign=top;spacingLeft=4;spacingRight=4;overflow=hidden;rotatable=0;points=[[0,0.5],[1,0.5]];portConstraint=eastwest;" parent="tOMq7tBUMF9Jnf4JLUL3-62" vertex="1">
          <mxGeometry y="26" width="140" height="26" as="geometry" />
        </mxCell>
        <mxCell id="tOMq7tBUMF9Jnf4JLUL3-64" value="" style="endArrow=none;html=1;exitX=1;exitY=0.5;exitDx=0;exitDy=0;entryX=0.75;entryY=0;entryDx=0;entryDy=0;" parent="tOMq7tBUMF9Jnf4JLUL3-62" source="tOMq7tBUMF9Jnf4JLUL3-63" target="tOMq7tBUMF9Jnf4JLUL3-62" edge="1">
          <mxGeometry width="50" height="50" relative="1" as="geometry">
            <mxPoint x="170" y="111.5" as="sourcePoint" />
            <mxPoint x="220" y="61.5" as="targetPoint" />
            <Array as="points">
              <mxPoint x="190" y="39.5" />
              <mxPoint x="190" y="-28.5" />
              <mxPoint x="105" y="-28.5" />
            </Array>
          </mxGeometry>
        </mxCell>
        <mxCell id="tOMq7tBUMF9Jnf4JLUL3-65" value="connection" style="text;html=1;align=center;verticalAlign=middle;resizable=0;points=[];;labelBackgroundColor=#ffffff;" parent="tOMq7tBUMF9Jnf4JLUL3-64" vertex="1" connectable="0">
          <mxGeometry x="-0.1274" relative="1" as="geometry">
            <mxPoint as="offset" />
          </mxGeometry>
        </mxCell>
        <mxCell id="tOMq7tBUMF9Jnf4JLUL3-66" value="Context" style="swimlane;fontStyle=0;childLayout=stackLayout;horizontal=1;startSize=26;fillColor=none;horizontalStack=0;resizeParent=1;resizeParentMax=0;resizeLast=0;collapsible=1;marginBottom=0;" parent="1" vertex="1">
          <mxGeometry x="1835" y="168.5" width="140" height="52" as="geometry" />
        </mxCell>
        <mxCell id="tOMq7tBUMF9Jnf4JLUL3-67" value="specification" style="text;strokeColor=none;fillColor=none;align=left;verticalAlign=top;spacingLeft=4;spacingRight=4;overflow=hidden;rotatable=0;points=[[0,0.5],[1,0.5]];portConstraint=eastwest;" parent="tOMq7tBUMF9Jnf4JLUL3-66" vertex="1">
          <mxGeometry y="26" width="140" height="26" as="geometry" />
        </mxCell>
        <mxCell id="tOMq7tBUMF9Jnf4JLUL3-68" value="Reference" style="swimlane;fontStyle=0;childLayout=stackLayout;horizontal=1;startSize=26;fillColor=none;horizontalStack=0;resizeParent=1;resizeParentMax=0;resizeLast=0;collapsible=1;marginBottom=0;" parent="1" vertex="1">
          <mxGeometry x="1835" y="237.5" width="140" height="130" as="geometry" />
        </mxCell>
        <mxCell id="tOMq7tBUMF9Jnf4JLUL3-69" value="title" style="text;strokeColor=none;fillColor=none;align=left;verticalAlign=top;spacingLeft=4;spacingRight=4;overflow=hidden;rotatable=0;points=[[0,0.5],[1,0.5]];portConstraint=eastwest;" parent="tOMq7tBUMF9Jnf4JLUL3-68" vertex="1">
          <mxGeometry y="26" width="140" height="26" as="geometry" />
        </mxCell>
        <mxCell id="tOMq7tBUMF9Jnf4JLUL3-70" value="authors" style="text;strokeColor=none;fillColor=none;align=left;verticalAlign=top;spacingLeft=4;spacingRight=4;overflow=hidden;rotatable=0;points=[[0,0.5],[1,0.5]];portConstraint=eastwest;" parent="tOMq7tBUMF9Jnf4JLUL3-68" vertex="1">
          <mxGeometry y="52" width="140" height="26" as="geometry" />
        </mxCell>
        <mxCell id="tOMq7tBUMF9Jnf4JLUL3-71" value="link" style="text;strokeColor=none;fillColor=none;align=left;verticalAlign=top;spacingLeft=4;spacingRight=4;overflow=hidden;rotatable=0;points=[[0,0.5],[1,0.5]];portConstraint=eastwest;" parent="tOMq7tBUMF9Jnf4JLUL3-68" vertex="1">
          <mxGeometry y="78" width="140" height="26" as="geometry" />
        </mxCell>
        <mxCell id="tOMq7tBUMF9Jnf4JLUL3-72" value="date" style="text;strokeColor=none;fillColor=none;align=left;verticalAlign=top;spacingLeft=4;spacingRight=4;overflow=hidden;rotatable=0;points=[[0,0.5],[1,0.5]];portConstraint=eastwest;" parent="tOMq7tBUMF9Jnf4JLUL3-68" vertex="1">
          <mxGeometry y="104" width="140" height="26" as="geometry" />
        </mxCell>
        <mxCell id="tOMq7tBUMF9Jnf4JLUL3-73" value="TaskBasedLink" style="swimlane;fontStyle=0;childLayout=stackLayout;horizontal=1;startSize=26;fillColor=none;horizontalStack=0;resizeParent=1;resizeParentMax=0;resizeLast=0;collapsible=1;marginBottom=0;" parent="1" vertex="1">
          <mxGeometry x="1315" y="482.5" width="140" height="52" as="geometry" />
        </mxCell>
        <mxCell id="tOMq7tBUMF9Jnf4JLUL3-74" value="Task" style="swimlane;fontStyle=0;childLayout=stackLayout;horizontal=1;startSize=26;fillColor=none;horizontalStack=0;resizeParent=1;resizeParentMax=0;resizeLast=0;collapsible=1;marginBottom=0;" parent="1" vertex="1">
          <mxGeometry x="1550" y="480.5" width="140" height="52" as="geometry" />
        </mxCell>
        <mxCell id="tOMq7tBUMF9Jnf4JLUL3-75" value="Quality" style="swimlane;fontStyle=0;childLayout=stackLayout;horizontal=1;startSize=26;fillColor=none;horizontalStack=0;resizeParent=1;resizeParentMax=0;resizeLast=0;collapsible=1;marginBottom=0;" parent="1" vertex="1">
          <mxGeometry x="1710" y="480.5" width="140" height="52" as="geometry" />
        </mxCell>
        <mxCell id="tOMq7tBUMF9Jnf4JLUL3-79" value="" style="endArrow=none;html=1;exitX=0.54;exitY=0.008;exitDx=0;exitDy=0;exitPerimeter=0;entryX=0;entryY=0.25;entryDx=0;entryDy=0;" parent="1" source="tOMq7tBUMF9Jnf4JLUL3-60" target="tOMq7tBUMF9Jnf4JLUL3-80" edge="1">
          <mxGeometry width="50" height="50" relative="1" as="geometry">
            <mxPoint x="1560" y="285" as="sourcePoint" />
            <mxPoint x="1515" y="247.5" as="targetPoint" />
            <Array as="points">
              <mxPoint x="1420" y="278.5" />
              <mxPoint x="1555" y="278.5" />
            </Array>
          </mxGeometry>
        </mxCell>
        <mxCell id="tOMq7tBUMF9Jnf4JLUL3-80" value="" style="triangle;whiteSpace=wrap;html=1;rotation=-90;" parent="1" vertex="1">
          <mxGeometry x="1550" y="226.5" width="20" height="22" as="geometry" />
        </mxCell>
        <mxCell id="tOMq7tBUMF9Jnf4JLUL3-81" value="" style="endArrow=none;html=1;entryX=1;entryY=0.25;entryDx=0;entryDy=0;" parent="1" target="tOMq7tBUMF9Jnf4JLUL3-41" edge="1">
          <mxGeometry width="50" height="50" relative="1" as="geometry">
            <mxPoint x="1831" y="187.5" as="sourcePoint" />
            <mxPoint x="1570" y="257.5" as="targetPoint" />
            <Array as="points" />
          </mxGeometry>
        </mxCell>
        <mxCell id="tOMq7tBUMF9Jnf4JLUL3-82" value="" style="endArrow=none;html=1;entryX=1;entryY=0.25;entryDx=0;entryDy=0;exitX=0;exitY=0.5;exitDx=0;exitDy=0;" parent="1" source="tOMq7tBUMF9Jnf4JLUL3-69" edge="1">
          <mxGeometry width="50" height="50" relative="1" as="geometry">
            <mxPoint x="1831" y="220" as="sourcePoint" />
            <mxPoint x="1625" y="220" as="targetPoint" />
            <Array as="points">
              <mxPoint x="1805" y="277" />
              <mxPoint x="1805" y="220" />
            </Array>
          </mxGeometry>
        </mxCell>
        <mxCell id="tOMq7tBUMF9Jnf4JLUL3-83" value="" style="endArrow=none;html=1;entryX=0;entryY=0.75;entryDx=0;entryDy=0;exitX=0.5;exitY=0;exitDx=0;exitDy=0;" parent="1" source="tOMq7tBUMF9Jnf4JLUL3-62" target="tOMq7tBUMF9Jnf4JLUL3-80" edge="1">
          <mxGeometry width="50" height="50" relative="1" as="geometry">
            <mxPoint x="1570.1799999999998" y="316.212" as="sourcePoint" />
            <mxPoint x="1570" y="257.5" as="targetPoint" />
            <Array as="points">
              <mxPoint x="1635" y="283" />
              <mxPoint x="1566" y="283.5" />
            </Array>
          </mxGeometry>
        </mxCell>
        <mxCell id="tOMq7tBUMF9Jnf4JLUL3-84" value="AssociationLink" style="swimlane;fontStyle=0;childLayout=stackLayout;horizontal=1;startSize=26;fillColor=none;horizontalStack=0;resizeParent=1;resizeParentMax=0;resizeLast=0;collapsible=1;marginBottom=0;" parent="1" vertex="1">
          <mxGeometry x="995" y="482.5" width="140" height="52" as="geometry" />
        </mxCell>
        <mxCell id="tOMq7tBUMF9Jnf4JLUL3-85" value="ContributionLink" style="swimlane;fontStyle=0;childLayout=stackLayout;horizontal=1;startSize=26;fillColor=none;horizontalStack=0;resizeParent=1;resizeParentMax=0;resizeLast=0;collapsible=1;marginBottom=0;" parent="1" vertex="1">
          <mxGeometry x="1165" y="482.5" width="140" height="52" as="geometry" />
        </mxCell>
        <mxCell id="tOMq7tBUMF9Jnf4JLUL3-86" value="" style="endArrow=none;html=1;exitX=0.54;exitY=0.008;exitDx=0;exitDy=0;exitPerimeter=0;entryX=0;entryY=0.25;entryDx=0;entryDy=0;" parent="1" target="tOMq7tBUMF9Jnf4JLUL3-87" edge="1">
          <mxGeometry width="50" height="50" relative="1" as="geometry">
            <mxPoint x="1065.6" y="482.41600000000017" as="sourcePoint" />
            <mxPoint x="1160" y="421" as="targetPoint" />
            <Array as="points">
              <mxPoint x="1065" y="452" />
              <mxPoint x="1200" y="452" />
              <mxPoint x="1410" y="452" />
            </Array>
          </mxGeometry>
        </mxCell>
        <mxCell id="tOMq7tBUMF9Jnf4JLUL3-87" value="" style="triangle;whiteSpace=wrap;html=1;rotation=-90;" parent="1" vertex="1">
          <mxGeometry x="1405" y="360.5" width="20" height="22" as="geometry" />
        </mxCell>
        <mxCell id="tOMq7tBUMF9Jnf4JLUL3-88" value="" style="endArrow=none;html=1;entryX=0;entryY=0.75;entryDx=0;entryDy=0;exitX=0.75;exitY=0;exitDx=0;exitDy=0;" parent="1" source="tOMq7tBUMF9Jnf4JLUL3-73" target="tOMq7tBUMF9Jnf4JLUL3-87" edge="1">
          <mxGeometry width="50" height="50" relative="1" as="geometry">
            <mxPoint x="1440" y="482" as="sourcePoint" />
            <mxPoint x="1215" y="431" as="targetPoint" />
            <Array as="points" />
          </mxGeometry>
        </mxCell>
        <mxCell id="tOMq7tBUMF9Jnf4JLUL3-89" value="" style="endArrow=none;html=1;exitX=0.5;exitY=0;exitDx=0;exitDy=0;entryX=0;entryY=0.5;entryDx=0;entryDy=0;" parent="1" source="tOMq7tBUMF9Jnf4JLUL3-85" target="tOMq7tBUMF9Jnf4JLUL3-87" edge="1">
          <mxGeometry width="50" height="50" relative="1" as="geometry">
            <mxPoint x="1075.6" y="492.41599999999994" as="sourcePoint" />
            <mxPoint x="1419.5" y="391.5" as="targetPoint" />
            <Array as="points">
              <mxPoint x="1235" y="462" />
              <mxPoint x="1415" y="462" />
            </Array>
          </mxGeometry>
        </mxCell>
        <mxCell id="tOMq7tBUMF9Jnf4JLUL3-90" value="" style="endArrow=none;html=1;exitX=0.5;exitY=0;exitDx=0;exitDy=0;entryX=0;entryY=0.25;entryDx=0;entryDy=0;" parent="1" source="tOMq7tBUMF9Jnf4JLUL3-76" target="tOMq7tBUMF9Jnf4JLUL3-91" edge="1">
          <mxGeometry width="50" height="50" relative="1" as="geometry">
            <mxPoint x="1065.6" y="654.4159999999999" as="sourcePoint" />
            <mxPoint x="1160" y="593" as="targetPoint" />
            <Array as="points">
              <mxPoint x="1330" y="590" />
              <mxPoint x="1410" y="590" />
            </Array>
          </mxGeometry>
        </mxCell>
        <mxCell id="tOMq7tBUMF9Jnf4JLUL3-91" value="" style="triangle;whiteSpace=wrap;html=1;rotation=-90;" parent="1" vertex="1">
          <mxGeometry x="1405" y="532.5" width="20" height="22" as="geometry" />
        </mxCell>
        <mxCell id="tOMq7tBUMF9Jnf4JLUL3-93" value="" style="endArrow=none;html=1;exitX=0.5;exitY=0;exitDx=0;exitDy=0;entryX=0;entryY=0.75;entryDx=0;entryDy=0;" parent="1" source="tOMq7tBUMF9Jnf4JLUL3-77" target="tOMq7tBUMF9Jnf4JLUL3-91" edge="1">
          <mxGeometry width="50" height="50" relative="1" as="geometry">
            <mxPoint x="1235" y="654.5" as="sourcePoint" />
            <mxPoint x="1419.5" y="563.5" as="targetPoint" />
            <Array as="points">
              <mxPoint x="1500" y="590" />
              <mxPoint x="1421" y="590" />
            </Array>
          </mxGeometry>
        </mxCell>
        <mxCell id="tOMq7tBUMF9Jnf4JLUL3-94" value="" style="endArrow=none;html=1;entryX=0.998;entryY=0.275;entryDx=0;entryDy=0;entryPerimeter=0;exitX=0;exitY=0.313;exitDx=0;exitDy=0;exitPerimeter=0;" parent="1" edge="1">
          <mxGeometry width="50" height="50" relative="1" as="geometry">
            <mxPoint x="1550.0000000000002" y="492.77600000000007" as="sourcePoint" />
            <mxPoint x="1454.72" y="492.79999999999995" as="targetPoint" />
            <Array as="points" />
          </mxGeometry>
        </mxCell>
        <mxCell id="tOMq7tBUMF9Jnf4JLUL3-95" value="Target" style="text;html=1;align=center;verticalAlign=middle;resizable=0;points=[];;labelBackgroundColor=#ffffff;" parent="tOMq7tBUMF9Jnf4JLUL3-94" vertex="1" connectable="0">
          <mxGeometry x="-0.2499" relative="1" as="geometry">
            <mxPoint x="-14.19" y="0.67" as="offset" />
          </mxGeometry>
        </mxCell>
        <mxCell id="tOMq7tBUMF9Jnf4JLUL3-96" value="Source" style="endArrow=none;html=1;entryX=1;entryY=0.5;entryDx=0;entryDy=0;" parent="1" target="tOMq7tBUMF9Jnf4JLUL3-73" edge="1">
          <mxGeometry width="50" height="50" relative="1" as="geometry">
            <mxPoint x="1550" y="509" as="sourcePoint" />
            <mxPoint x="1460" y="510" as="targetPoint" />
            <Array as="points" />
          </mxGeometry>
        </mxCell>
        <mxCell id="tOMq7tBUMF9Jnf4JLUL3-97" value="" style="endArrow=none;html=1;exitX=0.5;exitY=0;exitDx=0;exitDy=0;entryX=0;entryY=0.25;entryDx=0;entryDy=0;" parent="1" source="tOMq7tBUMF9Jnf4JLUL3-74" target="tOMq7tBUMF9Jnf4JLUL3-98" edge="1">
          <mxGeometry width="50" height="50" relative="1" as="geometry">
            <mxPoint x="1498.1" y="442.91599999999994" as="sourcePoint" />
            <mxPoint x="1592.5" y="381.5" as="targetPoint" />
            <Array as="points">
              <mxPoint x="1620" y="413" />
              <mxPoint x="1632.5" y="412.5" />
            </Array>
          </mxGeometry>
        </mxCell>
        <mxCell id="tOMq7tBUMF9Jnf4JLUL3-98" value="" style="triangle;whiteSpace=wrap;html=1;rotation=-90;" parent="1" vertex="1">
          <mxGeometry x="1627.5" y="360.5" width="20" height="22" as="geometry" />
        </mxCell>
        <mxCell id="tOMq7tBUMF9Jnf4JLUL3-99" value="" style="endArrow=none;html=1;entryX=0;entryY=0.75;entryDx=0;entryDy=0;exitX=0.5;exitY=0;exitDx=0;exitDy=0;" parent="1" source="tOMq7tBUMF9Jnf4JLUL3-75" target="tOMq7tBUMF9Jnf4JLUL3-98" edge="1">
          <mxGeometry width="50" height="50" relative="1" as="geometry">
            <mxPoint x="1712.5" y="442.4999999999999" as="sourcePoint" />
            <mxPoint x="1647.5" y="391.5" as="targetPoint" />
            <Array as="points">
              <mxPoint x="1780" y="418" />
              <mxPoint x="1643.5" y="417.5" />
            </Array>
          </mxGeometry>
        </mxCell>
        <mxCell id="tOMq7tBUMF9Jnf4JLUL3-100" value="" style="endArrow=none;html=1;exitX=0.75;exitY=1;exitDx=0;exitDy=0;entryX=0.75;entryY=1;entryDx=0;entryDy=0;" parent="1" source="tOMq7tBUMF9Jnf4JLUL3-75" target="tOMq7tBUMF9Jnf4JLUL3-84" edge="1">
          <mxGeometry width="50" height="50" relative="1" as="geometry">
            <mxPoint x="1055" y="620" as="sourcePoint" />
            <mxPoint x="1080" y="535" as="targetPoint" />
            <Array as="points">
              <mxPoint x="1815" y="770" />
              <mxPoint x="1100" y="770" />
            </Array>
          </mxGeometry>
        </mxCell>
        <mxCell id="tOMq7tBUMF9Jnf4JLUL3-101" value="Target" style="text;html=1;align=center;verticalAlign=middle;resizable=0;points=[];;labelBackgroundColor=#ffffff;" parent="tOMq7tBUMF9Jnf4JLUL3-100" vertex="1" connectable="0">
          <mxGeometry x="-0.0135" y="-1" relative="1" as="geometry">
            <mxPoint x="33.33" as="offset" />
          </mxGeometry>
        </mxCell>
        <mxCell id="tOMq7tBUMF9Jnf4JLUL3-102" value="" style="endArrow=none;html=1;entryX=0.25;entryY=1;entryDx=0;entryDy=0;exitX=0.5;exitY=1;exitDx=0;exitDy=0;" parent="1" source="tOMq7tBUMF9Jnf4JLUL3-75" target="tOMq7tBUMF9Jnf4JLUL3-85" edge="1">
          <mxGeometry width="50" height="50" relative="1" as="geometry">
            <mxPoint x="1825" y="542.5" as="sourcePoint" />
            <mxPoint x="1040" y="544.5000000000002" as="targetPoint" />
            <Array as="points">
              <mxPoint x="1780" y="750" />
              <mxPoint x="1170" y="750" />
              <mxPoint x="1170" y="570" />
              <mxPoint x="1200" y="570" />
            </Array>
          </mxGeometry>
        </mxCell>
        <mxCell id="tOMq7tBUMF9Jnf4JLUL3-103" value="Target" style="text;html=1;align=center;verticalAlign=middle;resizable=0;points=[];;labelBackgroundColor=#ffffff;" parent="tOMq7tBUMF9Jnf4JLUL3-102" vertex="1" connectable="0">
          <mxGeometry x="-0.049" y="2" relative="1" as="geometry">
            <mxPoint x="12.5" y="-2" as="offset" />
          </mxGeometry>
        </mxCell>
        <mxCell id="tOMq7tBUMF9Jnf4JLUL3-104" value="" style="endArrow=none;html=1;entryX=0.25;entryY=1;entryDx=0;entryDy=0;exitX=0.25;exitY=1;exitDx=0;exitDy=0;" parent="1" source="tOMq7tBUMF9Jnf4JLUL3-75" edge="1">
          <mxGeometry width="50" height="50" relative="1" as="geometry">
            <mxPoint x="1705" y="540" as="sourcePoint" />
            <mxPoint x="1240" y="533.5" as="targetPoint" />
            <Array as="points">
              <mxPoint x="1745" y="730" />
              <mxPoint x="1200" y="730" />
              <mxPoint x="1200" y="590" />
              <mxPoint x="1240" y="590" />
            </Array>
          </mxGeometry>
        </mxCell>
        <mxCell id="tOMq7tBUMF9Jnf4JLUL3-105" value="Source" style="text;html=1;align=center;verticalAlign=middle;resizable=0;points=[];;labelBackgroundColor=#ffffff;" parent="tOMq7tBUMF9Jnf4JLUL3-104" vertex="1" connectable="0">
          <mxGeometry x="-0.6501" y="-79" relative="1" as="geometry">
            <mxPoint x="-166.00000000000003" y="25.83" as="offset" />
          </mxGeometry>
        </mxCell>
        <mxCell id="tOMq7tBUMF9Jnf4JLUL3-106" value="" style="endArrow=none;html=1;entryX=0.75;entryY=1;entryDx=0;entryDy=0;exitX=0.75;exitY=1;exitDx=0;exitDy=0;" parent="1" source="tOMq7tBUMF9Jnf4JLUL3-85" target="tOMq7tBUMF9Jnf4JLUL3-74" edge="1">
          <mxGeometry width="50" height="50" relative="1" as="geometry">
            <mxPoint x="1645" y="610" as="sourcePoint" />
            <mxPoint x="1695" y="560" as="targetPoint" />
            <Array as="points">
              <mxPoint x="1270" y="610" />
              <mxPoint x="1230" y="610" />
              <mxPoint x="1230" y="710" />
              <mxPoint x="1655" y="710" />
            </Array>
          </mxGeometry>
        </mxCell>
        <mxCell id="tOMq7tBUMF9Jnf4JLUL3-107" value="Source" style="text;html=1;align=center;verticalAlign=middle;resizable=0;points=[];;labelBackgroundColor=#ffffff;" parent="tOMq7tBUMF9Jnf4JLUL3-106" vertex="1" connectable="0">
          <mxGeometry x="0.2018" relative="1" as="geometry">
            <mxPoint x="-6.17" as="offset" />
          </mxGeometry>
        </mxCell>
        <mxCell id="tOMq7tBUMF9Jnf4JLUL3-108" value="" style="endArrow=none;html=1;entryX=0.25;entryY=0;entryDx=0;entryDy=0;exitX=0.25;exitY=0;exitDx=0;exitDy=0;" parent="1" source="tOMq7tBUMF9Jnf4JLUL3-84" target="tOMq7tBUMF9Jnf4JLUL3-74" edge="1">
          <mxGeometry width="50" height="50" relative="1" as="geometry">
            <mxPoint x="1540" y="460" as="sourcePoint" />
            <mxPoint x="1590" y="410" as="targetPoint" />
            <Array as="points">
              <mxPoint x="1030" y="410" />
              <mxPoint x="1405" y="410" />
              <mxPoint x="1415" y="400" />
              <mxPoint x="1425" y="410" />
              <mxPoint x="1585" y="410" />
            </Array>
          </mxGeometry>
        </mxCell>
        <mxCell id="tOMq7tBUMF9Jnf4JLUL3-109" value="Source" style="text;html=1;align=center;verticalAlign=middle;resizable=0;points=[];;labelBackgroundColor=#ffffff;" parent="tOMq7tBUMF9Jnf4JLUL3-108" vertex="1" connectable="0">
          <mxGeometry x="-0.0188" y="1" relative="1" as="geometry">
            <mxPoint x="1" as="offset" />
          </mxGeometry>
        </mxCell>
        <mxCell id="tOMq7tBUMF9Jnf4JLUL3-111" value="*" style="text;html=1;align=center;verticalAlign=middle;resizable=0;points=[];;autosize=1;" parent="1" vertex="1">
          <mxGeometry x="1815" y="164.5" width="20" height="20" as="geometry" />
        </mxCell>
        <mxCell id="tOMq7tBUMF9Jnf4JLUL3-112" value="1..*" style="text;html=1;" parent="1" vertex="1">
          <mxGeometry x="1625" y="197" width="40" height="30" as="geometry" />
        </mxCell>
        <mxCell id="tOMq7tBUMF9Jnf4JLUL3-113" value="1..*" style="text;html=1;" parent="1" vertex="1">
          <mxGeometry x="1810" y="248.5" width="40" height="30" as="geometry" />
        </mxCell>
        <mxCell id="tOMq7tBUMF9Jnf4JLUL3-114" value="*" style="text;html=1;align=center;verticalAlign=middle;resizable=0;points=[];;autosize=1;" parent="1" vertex="1">
          <mxGeometry x="1450" y="480" width="20" height="20" as="geometry" />
        </mxCell>
        <mxCell id="tOMq7tBUMF9Jnf4JLUL3-115" value="1" style="text;html=1;align=center;verticalAlign=middle;resizable=0;points=[];;autosize=1;" parent="1" vertex="1">
          <mxGeometry x="1534" y="474" width="20" height="20" as="geometry" />
        </mxCell>
        <mxCell id="tOMq7tBUMF9Jnf4JLUL3-116" value="*" style="text;html=1;align=center;verticalAlign=middle;resizable=0;points=[];;autosize=1;" parent="1" vertex="1">
          <mxGeometry x="1451" y="507" width="20" height="20" as="geometry" />
        </mxCell>
        <mxCell id="tOMq7tBUMF9Jnf4JLUL3-117" value="1" style="text;html=1;align=center;verticalAlign=middle;resizable=0;points=[];;autosize=1;" parent="1" vertex="1">
          <mxGeometry x="1535" y="507" width="20" height="20" as="geometry" />
        </mxCell>
        <mxCell id="tOMq7tBUMF9Jnf4JLUL3-118" value="1" style="text;html=1;align=center;verticalAlign=middle;resizable=0;points=[];;autosize=1;" parent="1" vertex="1">
          <mxGeometry x="1655" y="538" width="20" height="20" as="geometry" />
        </mxCell>
        <mxCell id="tOMq7tBUMF9Jnf4JLUL3-119" value="*" style="text;html=1;align=center;verticalAlign=middle;resizable=0;points=[];;autosize=1;" parent="1" vertex="1">
          <mxGeometry x="1275" y="538" width="20" height="20" as="geometry" />
        </mxCell>
        <mxCell id="tOMq7tBUMF9Jnf4JLUL3-120" value="1" style="text;html=1;align=center;verticalAlign=middle;resizable=0;points=[];;autosize=1;" parent="1" vertex="1">
          <mxGeometry x="1585" y="460.5" width="20" height="20" as="geometry" />
        </mxCell>
        <mxCell id="tOMq7tBUMF9Jnf4JLUL3-121" value="*" style="text;html=1;align=center;verticalAlign=middle;resizable=0;points=[];;autosize=1;" parent="1" vertex="1">
          <mxGeometry x="1015" y="462.5" width="20" height="20" as="geometry" />
        </mxCell>
        <mxCell id="tOMq7tBUMF9Jnf4JLUL3-122" value="1" style="text;html=1;align=center;verticalAlign=middle;resizable=0;points=[];;autosize=1;" parent="1" vertex="1">
          <mxGeometry x="1810" y="532.5" width="20" height="20" as="geometry" />
        </mxCell>
        <mxCell id="tOMq7tBUMF9Jnf4JLUL3-123" value="*" style="text;html=1;align=center;verticalAlign=middle;resizable=0;points=[];;autosize=1;" parent="1" vertex="1">
          <mxGeometry x="1080" y="534.5" width="20" height="20" as="geometry" />
        </mxCell>
        <mxCell id="tOMq7tBUMF9Jnf4JLUL3-124" value="XOR" style="endArrow=none;dashed=1;html=1;" parent="1" edge="1">
          <mxGeometry width="50" height="50" relative="1" as="geometry">
            <mxPoint x="1635" y="620" as="sourcePoint" />
            <mxPoint x="1755" y="620" as="targetPoint" />
          </mxGeometry>
        </mxCell>
        <mxCell id="tOMq7tBUMF9Jnf4JLUL3-125" value="1" style="text;html=1;align=center;verticalAlign=middle;resizable=0;points=[];;autosize=1;" parent="1" vertex="1">
          <mxGeometry x="1745" y="533.5" width="20" height="20" as="geometry" />
        </mxCell>
        <mxCell id="tOMq7tBUMF9Jnf4JLUL3-126" value="*" style="text;html=1;align=center;verticalAlign=middle;resizable=0;points=[];;autosize=1;" parent="1" vertex="1">
          <mxGeometry x="1245" y="538" width="20" height="20" as="geometry" />
        </mxCell>
        <mxCell id="tOMq7tBUMF9Jnf4JLUL3-127" value="1" style="text;html=1;align=center;verticalAlign=middle;resizable=0;points=[];;autosize=1;" parent="1" vertex="1">
          <mxGeometry x="1777.5" y="532.5" width="20" height="20" as="geometry" />
        </mxCell>
        <mxCell id="tOMq7tBUMF9Jnf4JLUL3-128" value="*" style="text;html=1;align=center;verticalAlign=middle;resizable=0;points=[];;autosize=1;" parent="1" vertex="1">
          <mxGeometry x="1195" y="538" width="20" height="20" as="geometry" />
        </mxCell>
        <mxCell id="tOMq7tBUMF9Jnf4JLUL3-129" value="" style="endArrow=none;html=1;exitX=1;exitY=0.5;exitDx=0;exitDy=0;entryX=0;entryY=0.5;entryDx=0;entryDy=0;" parent="1" source="tOMq7tBUMF9Jnf4JLUL3-7" target="tOMq7tBUMF9Jnf4JLUL3-41" edge="1">
          <mxGeometry width="50" height="50" relative="1" as="geometry">
            <mxPoint x="1018" y="289" as="sourcePoint" />
            <mxPoint x="1158" y="200" as="targetPoint" />
            <Array as="points">
              <mxPoint x="1390" y="289" />
              <mxPoint x="1390" y="200" />
            </Array>
          </mxGeometry>
        </mxCell>
        <mxCell id="tOMq7tBUMF9Jnf4JLUL3-130" value="Consists of" style="text;html=1;align=center;verticalAlign=middle;resizable=0;points=[];;labelBackgroundColor=#ffffff;" parent="tOMq7tBUMF9Jnf4JLUL3-129" vertex="1" connectable="0">
          <mxGeometry x="0.2594" relative="1" as="geometry">
            <mxPoint x="-65" y="-1.01" as="offset" />
          </mxGeometry>
        </mxCell>
        <mxCell id="tOMq7tBUMF9Jnf4JLUL3-131" value="Comment" style="swimlane;fontStyle=0;childLayout=stackLayout;horizontal=1;startSize=26;fillColor=none;horizontalStack=0;resizeParent=1;resizeParentMax=0;resizeLast=0;collapsible=1;marginBottom=0;" parent="1" vertex="1">
          <mxGeometry x="1787.5" y="30" width="140" height="104" as="geometry" />
        </mxCell>
        <mxCell id="tOMq7tBUMF9Jnf4JLUL3-132" value="timestamp" style="text;strokeColor=none;fillColor=none;align=left;verticalAlign=top;spacingLeft=4;spacingRight=4;overflow=hidden;rotatable=0;points=[[0,0.5],[1,0.5]];portConstraint=eastwest;" parent="tOMq7tBUMF9Jnf4JLUL3-131" vertex="1">
          <mxGeometry y="26" width="140" height="26" as="geometry" />
        </mxCell>
        <mxCell id="tOMq7tBUMF9Jnf4JLUL3-133" value="comment" style="text;strokeColor=none;fillColor=none;align=left;verticalAlign=top;spacingLeft=4;spacingRight=4;overflow=hidden;rotatable=0;points=[[0,0.5],[1,0.5]];portConstraint=eastwest;" parent="tOMq7tBUMF9Jnf4JLUL3-131" vertex="1">
          <mxGeometry y="52" width="140" height="26" as="geometry" />
        </mxCell>
        <mxCell id="tOMq7tBUMF9Jnf4JLUL3-134" value="likes" style="text;strokeColor=none;fillColor=none;align=left;verticalAlign=top;spacingLeft=4;spacingRight=4;overflow=hidden;rotatable=0;points=[[0,0.5],[1,0.5]];portConstraint=eastwest;" parent="tOMq7tBUMF9Jnf4JLUL3-131" vertex="1">
          <mxGeometry y="78" width="140" height="26" as="geometry" />
        </mxCell>
        <mxCell id="tOMq7tBUMF9Jnf4JLUL3-135" value="" style="endArrow=none;html=1;entryX=0.5;entryY=0;entryDx=0;entryDy=0;exitX=0;exitY=0.25;exitDx=0;exitDy=0;" parent="1" source="tOMq7tBUMF9Jnf4JLUL3-131" target="tOMq7tBUMF9Jnf4JLUL3-41" edge="1">
          <mxGeometry width="50" height="50" relative="1" as="geometry">
            <mxPoint x="1841" y="197.5" as="sourcePoint" />
            <mxPoint x="1635" y="197.5" as="targetPoint" />
            <Array as="points">
              <mxPoint x="1555" y="56" />
            </Array>
          </mxGeometry>
        </mxCell>
        <mxCell id="tOMq7tBUMF9Jnf4JLUL3-136" value="" style="endArrow=none;html=1;entryX=0;entryY=0.5;entryDx=0;entryDy=0;exitX=0.5;exitY=0;exitDx=0;exitDy=0;" parent="1" source="tOMq7tBUMF9Jnf4JLUL3-131" target="tOMq7tBUMF9Jnf4JLUL3-2" edge="1">
          <mxGeometry width="50" height="50" relative="1" as="geometry">
            <mxPoint x="1927.5" y="10.5" as="sourcePoint" />
            <mxPoint x="1695" y="142" as="targetPoint" />
            <Array as="points">
              <mxPoint x="1858" />
              <mxPoint x="280" />
              <mxPoint x="280" y="266" />
            </Array>
          </mxGeometry>
        </mxCell>
        <mxCell id="tOMq7tBUMF9Jnf4JLUL3-137" value="Writer" style="text;html=1;align=center;verticalAlign=middle;resizable=0;points=[];;labelBackgroundColor=#ffffff;" parent="tOMq7tBUMF9Jnf4JLUL3-136" vertex="1" connectable="0">
          <mxGeometry x="-0.3311" y="1" relative="1" as="geometry">
            <mxPoint as="offset" />
          </mxGeometry>
        </mxCell>
        <mxCell id="tOMq7tBUMF9Jnf4JLUL3-138" value="*" style="text;html=1;align=center;verticalAlign=middle;resizable=0;points=[];;autosize=1;" parent="1" vertex="1">
          <mxGeometry x="1705" y="347" width="20" height="20" as="geometry" />
        </mxCell>
        <mxCell id="tOMq7tBUMF9Jnf4JLUL3-139" value="*" style="text;html=1;align=center;verticalAlign=middle;resizable=0;points=[];;autosize=1;" parent="1" vertex="1">
          <mxGeometry x="1670" y="292" width="20" height="20" as="geometry" />
        </mxCell>
        <mxCell id="tOMq7tBUMF9Jnf4JLUL3-140" value="*" style="text;html=1;align=center;verticalAlign=middle;resizable=0;points=[];;autosize=1;" parent="1" vertex="1">
          <mxGeometry x="1767.5" y="40" width="20" height="20" as="geometry" />
        </mxCell>
        <mxCell id="tOMq7tBUMF9Jnf4JLUL3-141" value="1" style="text;html=1;align=center;verticalAlign=middle;resizable=0;points=[];;autosize=1;" parent="1" vertex="1">
          <mxGeometry x="1560" y="154.5" width="20" height="20" as="geometry" />
        </mxCell>
        <mxCell id="tOMq7tBUMF9Jnf4JLUL3-142" value="*" style="text;html=1;align=center;verticalAlign=middle;resizable=0;points=[];;autosize=1;" parent="1" vertex="1">
          <mxGeometry x="1857.5" y="10" width="20" height="20" as="geometry" />
        </mxCell>
        <mxCell id="tOMq7tBUMF9Jnf4JLUL3-143" value="1" style="text;html=1;align=center;verticalAlign=middle;resizable=0;points=[];;autosize=1;" parent="1" vertex="1">
          <mxGeometry x="340" y="248.5" width="20" height="20" as="geometry" />
        </mxCell>
        <mxCell id="tOMq7tBUMF9Jnf4JLUL3-144" value="1" style="text;html=1;align=center;verticalAlign=middle;resizable=0;points=[];;autosize=1;" parent="1" vertex="1">
          <mxGeometry x="970" y="268" width="20" height="20" as="geometry" />
        </mxCell>
        <mxCell id="tOMq7tBUMF9Jnf4JLUL3-145" value="*" style="text;html=1;align=center;verticalAlign=middle;resizable=0;points=[];;autosize=1;" parent="1" vertex="1">
          <mxGeometry x="1465" y="179" width="20" height="20" as="geometry" />
        </mxCell>
        <mxCell id="tOMq7tBUMF9Jnf4JLUL3-146" value="Connection can be established only between elements in two different map" style="shape=note;size=15;align=left;spacingLeft=10;html=1;whiteSpace=wrap;" parent="1" vertex="1">
          <mxGeometry x="1868" y="413" width="150" height="67" as="geometry" />
        </mxCell>
        <mxCell id="tOMq7tBUMF9Jnf4JLUL3-147" value="" style="edgeStyle=none;endArrow=none;exitX=0.4;exitY=0;dashed=1;html=1;" parent="1" source="tOMq7tBUMF9Jnf4JLUL3-146" edge="1">
          <mxGeometry x="1" relative="1" as="geometry">
            <mxPoint x="1755" y="340" as="targetPoint" />
            <Array as="points">
              <mxPoint x="1928" y="390" />
              <mxPoint x="1755" y="390" />
            </Array>
          </mxGeometry>
        </mxCell>
        <mxCell id="6QBSFcgjiNAxlg8wuLgY-2" value="&lt;span style=&quot;background-color: rgb(255 , 255 , 255)&quot;&gt;1..*&lt;/span&gt;" style="text;html=1;align=center;verticalAlign=middle;resizable=0;points=[];;autosize=1;" parent="1" vertex="1">
          <mxGeometry x="1622.5" y="168.5" width="30" height="20" as="geometry" />
        </mxCell>
        <mxCell id="tOMq7tBUMF9Jnf4JLUL3-76" value="AchievedByLink" style="swimlane;fontStyle=0;childLayout=stackLayout;horizontal=1;startSize=26;fillColor=none;horizontalStack=0;resizeParent=1;resizeParentMax=0;resizeLast=0;collapsible=1;marginBottom=0;" parent="1" vertex="1">
          <mxGeometry x="1260" y="628.5" width="140" height="52" as="geometry" />
        </mxCell>
        <mxCell id="tOMq7tBUMF9Jnf4JLUL3-77" value="ConsistsOfLink" style="swimlane;fontStyle=0;childLayout=stackLayout;horizontal=1;startSize=26;fillColor=none;horizontalStack=0;resizeParent=1;resizeParentMax=0;resizeLast=0;collapsible=1;marginBottom=0;" parent="1" vertex="1">
          <mxGeometry x="1430" y="628.5" width="140" height="52" as="geometry" />
        </mxCell>
        <mxCell id="FyhdABzyvlyhS6COd_ff-1" value="Child" style="text;html=1;align=center;verticalAlign=middle;resizable=0;points=[];;labelBackgroundColor=#ffffff;" vertex="1" connectable="0" parent="1">
          <mxGeometry x="690" y="49.99999999999977" as="geometry" />
        </mxCell>
      </root>
    </mxGraphModel>
  </diagram>
</mxfile>
